<svg width="120" height="41" viewBox="0 0 120 41" fill="none" xmlns="http://www.w3.org/2000/svg">
<path d="M110.265 0.499886H9.66456C9.29786 0.499886 8.93556 0.499886 8.56983 0.501886C8.26368 0.503886 7.95997 0.509696 7.65088 0.514586C6.9794 0.522488 6.30949 0.581562 5.64698 0.691296C4.98541 0.803418 4.34456 1.0148 3.7461 1.3183C3.14838 1.62436 2.60223 2.02205 2.12745 2.49696C1.65019 2.97052 1.25235 3.5179 0.949233 4.11805C0.645283 4.71699 0.434523 5.35882 0.324233 6.02137C0.212894 6.68307 0.152981 7.35241 0.145033 8.02337C0.135753 8.32997 0.134773 8.63759 0.129883 8.94423V32.0585C0.134773 32.369 0.135753 32.6698 0.145033 32.9804C0.152984 33.6513 0.212896 34.3206 0.324233 34.9823C0.434219 35.6452 0.644991 36.2874 0.949233 36.8866C1.25221 37.4848 1.6501 38.03 2.12745 38.5009C2.60043 38.9779 3.14693 39.3759 3.7461 39.6796C4.34455 39.9839 4.98533 40.1965 5.64698 40.3104C6.3096 40.4192 6.97944 40.4783 7.65088 40.4872C7.95997 40.494 8.26368 40.4979 8.56983 40.4979C8.93555 40.4999 9.29788 40.4999 9.66456 40.4999H110.265C110.624 40.4999 110.989 40.4999 111.349 40.4979C111.653 40.4979 111.966 40.494 112.271 40.4872C112.941 40.4788 113.609 40.4197 114.271 40.3104C114.934 40.1957 115.577 39.9831 116.179 39.6796C116.777 39.3757 117.323 38.9777 117.796 38.5009C118.272 38.0281 118.671 37.4833 118.978 36.8866C119.28 36.287 119.488 35.6448 119.597 34.9823C119.708 34.3205 119.77 33.6514 119.782 32.9804C119.786 32.6698 119.786 32.369 119.786 32.0585C119.794 31.6952 119.794 31.3339 119.794 30.9647V10.036C119.794 9.66981 119.794 9.30653 119.786 8.94423C119.786 8.63759 119.786 8.32997 119.782 8.02333C119.77 7.35231 119.708 6.68312 119.597 6.02133C119.488 5.35917 119.279 4.71739 118.978 4.11801C118.36 2.91508 117.381 1.93591 116.179 1.31821C115.577 1.01545 114.934 0.804126 114.271 0.691206C113.609 0.580989 112.941 0.521894 112.271 0.514446C111.966 0.509566 111.653 0.503706 111.349 0.501756C110.989 0.499756 110.624 0.499756 110.265 0.499756V0.499886Z" fill="#A6A6A6"/>
<path d="M8.57475 39.625C8.27007 39.625 7.97275 39.6211 7.67046 39.6143C7.04424 39.6061 6.41949 39.5516 5.80132 39.4512C5.22491 39.3519 4.66652 39.1673 4.14458 38.9033C3.62742 38.6415 3.15573 38.2983 2.74758 37.8867C2.33352 37.48 1.9888 37.0082 1.72707 36.4902C1.46246 35.9688 1.27933 35.4099 1.18407 34.833C1.08119 34.2131 1.02553 33.5863 1.01757 32.958C1.01123 32.7471 1.00293 32.0449 1.00293 32.0449V8.94434C1.00293 8.94434 1.01177 8.25293 1.01762 8.0498C1.02525 7.42248 1.08058 6.79665 1.18315 6.17773C1.27859 5.59925 1.46186 5.03875 1.72661 4.51563C1.98737 3.99794 2.33018 3.52586 2.74175 3.11768C3.15285 2.70562 3.62605 2.3606 4.14409 2.09521C4.66483 1.83209 5.22217 1.64873 5.79741 1.55127C6.41761 1.44984 7.04453 1.395 7.67292 1.38721L8.57524 1.375H111.344L112.257 1.3877C112.88 1.3951 113.501 1.44945 114.115 1.55029C114.696 1.64898 115.259 1.83362 115.786 2.09814C116.824 2.63299 117.668 3.47916 118.201 4.51807C118.462 5.03758 118.642 5.59351 118.736 6.16699C118.84 6.79099 118.898 7.42174 118.91 8.0542C118.913 8.3374 118.913 8.6416 118.913 8.94434C118.921 9.31934 118.921 9.67627 118.921 10.0361V30.9648C118.921 31.3281 118.921 31.6826 118.913 32.04C118.913 32.3652 118.913 32.6631 118.909 32.9697C118.898 33.5909 118.84 34.2104 118.738 34.8232C118.645 35.4043 118.463 35.9675 118.198 36.4932C117.935 37.0056 117.592 37.4733 117.183 37.8789C116.774 38.2927 116.302 38.6379 115.783 38.9014C115.258 39.1674 114.696 39.3527 114.115 39.4512C113.497 39.5522 112.872 39.6067 112.246 39.6143C111.953 39.6211 111.646 39.625 111.349 39.625L110.265 39.627L8.57475 39.625Z" fill="black"/>
<path d="M24.8989 20.8011C24.9096 19.9664 25.1313 19.148 25.5434 18.4221C25.9554 17.6961 26.5443 17.0862 27.2554 16.649C26.8037 16.0038 26.2078 15.4729 25.5149 15.0983C24.8221 14.7238 24.0515 14.516 23.2643 14.4913C21.585 14.3151 19.9571 15.4962 19.1014 15.4962C18.2291 15.4962 16.9116 14.5088 15.4929 14.538C14.5752 14.5677 13.6809 14.8345 12.897 15.3126C12.1131 15.7906 11.4664 16.4636 11.02 17.2659C9.08596 20.6143 10.5285 25.5354 12.3812 28.242C13.3081 29.5673 14.3913 31.0478 15.8088 30.9953C17.1958 30.9377 17.7139 30.1108 19.3882 30.1108C21.0469 30.1108 21.533 30.9953 22.9792 30.9619C24.4676 30.9377 25.4053 29.6306 26.2997 28.2927C26.9657 27.3484 27.4781 26.3047 27.8181 25.2002C26.9534 24.8345 26.2155 24.2223 25.6964 23.44C25.1772 22.6577 24.8999 21.7399 24.8989 20.8011Z" fill="white"/>
<path d="M22.1675 12.7113C22.979 11.7371 23.3788 10.4849 23.282 9.2207C22.0421 9.35092 20.8969 9.94348 20.0744 10.8803C19.6723 11.338 19.3643 11.8704 19.168 12.4472C18.9718 13.024 18.8911 13.6337 18.9307 14.2417C19.5508 14.2481 20.1643 14.1137 20.725 13.8486C21.2857 13.5835 21.7789 13.1946 22.1675 12.7113Z" fill="white"/>
<path d="M42.4326 27.6397H37.6992L36.5625 30.9961H34.5576L39.041 18.5781H41.124L45.6074 30.9961H43.5683L42.4326 27.6397ZM38.1894 26.0908H41.9414L40.0918 20.6436H40.0401L38.1894 26.0908Z" fill="white"/>
<path d="M55.2901 26.4695C55.2901 29.2829 53.7842 31.0905 51.5117 31.0905C50.9361 31.1207 50.3636 30.9881 49.8598 30.7079C49.356 30.4278 48.9413 30.0114 48.6631 29.5065H48.6201V33.9909H46.7617V21.9421H48.5606V23.448H48.5948C48.8857 22.9455 49.3074 22.5313 49.8151 22.2495C50.3227 21.9676 50.8972 21.8287 51.4776 21.8474C53.7754 21.8474 55.2901 23.6638 55.2901 26.4695ZM53.3799 26.4695C53.3799 24.6365 52.4326 23.4314 50.9873 23.4314C49.5674 23.4314 48.6123 24.6618 48.6123 26.4695C48.6123 28.2937 49.5674 29.5154 50.9873 29.5154C52.4326 29.5154 53.3799 28.3191 53.3799 26.4695Z" fill="white"/>
<path d="M65.2549 26.4694C65.2549 29.2829 63.7491 31.0905 61.4766 31.0905C60.9009 31.1206 60.3284 30.988 59.8246 30.7079C59.3209 30.4278 58.9061 30.0114 58.628 29.5065H58.585V33.9909H56.7266V21.9421H58.5254V23.448H58.5596C58.8505 22.9455 59.2722 22.5313 59.7799 22.2495C60.2875 21.9676 60.8621 21.8287 61.4424 21.8474C63.7403 21.8474 65.2549 23.6638 65.2549 26.4694ZM63.3448 26.4694C63.3448 24.6364 62.3975 23.4314 60.9522 23.4314C59.5323 23.4314 58.5772 24.6618 58.5772 26.4694C58.5772 28.2937 59.5323 29.5153 60.9522 29.5153C62.3975 29.5153 63.3448 28.3191 63.3448 26.4694H63.3448Z" fill="white"/>
<path d="M71.8409 27.5362C71.9786 28.7676 73.1749 29.5762 74.8096 29.5762C76.376 29.5762 77.503 28.7676 77.503 27.6572C77.503 26.6934 76.8233 26.1162 75.2139 25.7207L73.6045 25.333C71.3243 24.7822 70.2657 23.7158 70.2657 21.9854C70.2657 19.8428 72.1329 18.3711 74.7842 18.3711C77.4082 18.3711 79.2071 19.8428 79.2676 21.9854H77.3916C77.2793 20.7461 76.2549 19.9981 74.7578 19.9981C73.2608 19.9981 72.2363 20.7549 72.2363 21.8565C72.2363 22.7344 72.8906 23.251 74.4912 23.6465L75.8594 23.9824C78.4072 24.5849 79.4658 25.6084 79.4658 27.4248C79.4658 29.748 77.6152 31.2031 74.6719 31.2031C71.918 31.2031 70.0586 29.7822 69.9385 27.5361L71.8409 27.5362Z" fill="white"/>
<path d="M83.4766 19.7998V21.9424H85.1982V23.4141H83.4766V28.4053C83.4766 29.1807 83.8213 29.542 84.5781 29.542C84.7825 29.5384 84.9866 29.5241 85.1894 29.499V30.9619C84.8492 31.0255 84.5033 31.0543 84.1572 31.0478C82.3242 31.0478 81.6094 30.3593 81.6094 28.6035V23.4141H80.293V21.9424H81.6093V19.7998H83.4766Z" fill="white"/>
<path d="M86.1953 26.4697C86.1953 23.6211 87.873 21.8311 90.4893 21.8311C93.1143 21.8311 94.7842 23.6211 94.7842 26.4697C94.7842 29.3262 93.123 31.1084 90.4893 31.1084C87.8564 31.1084 86.1953 29.3262 86.1953 26.4697ZM92.8906 26.4697C92.8906 24.5156 91.9951 23.3623 90.4893 23.3623C88.9834 23.3623 88.0889 24.5244 88.0889 26.4697C88.0889 28.4316 88.9834 29.5762 90.4893 29.5762C91.9951 29.5762 92.8906 28.4316 92.8906 26.4697H92.8906Z" fill="white"/>
<path d="M96.3164 21.942H98.0889V23.483H98.1319C98.2518 23.0017 98.5337 22.5764 98.9303 22.2785C99.3269 21.9806 99.814 21.8284 100.31 21.8473C100.524 21.8465 100.737 21.8698 100.946 21.9166V23.6549C100.676 23.5723 100.394 23.5343 100.111 23.5426C99.8414 23.5316 99.5722 23.5792 99.3224 23.6821C99.0725 23.785 98.8479 23.9408 98.6639 24.1386C98.4799 24.3365 98.341 24.5719 98.2565 24.8286C98.1721 25.0852 98.1442 25.3571 98.1748 25.6256V30.9957H96.3164L96.3164 21.942Z" fill="white"/>
<path d="M109.515 28.3369C109.265 29.9805 107.664 31.1084 105.616 31.1084C102.982 31.1084 101.348 29.3437 101.348 26.5127C101.348 23.6729 102.991 21.8311 105.538 21.8311C108.043 21.8311 109.618 23.5518 109.618 26.2969V26.9336H103.224V27.0459C103.194 27.3791 103.236 27.7148 103.346 28.0306C103.456 28.3464 103.632 28.6352 103.863 28.8778C104.093 29.1203 104.372 29.3111 104.682 29.4374C104.992 29.5637 105.325 29.6226 105.659 29.6103C106.098 29.6515 106.539 29.5498 106.916 29.3203C107.292 29.0909 107.585 28.746 107.75 28.3369L109.515 28.3369ZM103.232 25.6348H107.759C107.775 25.3352 107.73 25.0354 107.625 24.7541C107.521 24.4729 107.359 24.2164 107.15 24.0006C106.942 23.7849 106.691 23.6145 106.414 23.5003C106.136 23.3861 105.838 23.3305 105.538 23.3369C105.235 23.3351 104.935 23.3933 104.655 23.508C104.375 23.6227 104.121 23.7918 103.906 24.0054C103.692 24.2191 103.522 24.473 103.406 24.7527C103.291 25.0323 103.232 25.3321 103.232 25.6348V25.6348Z" fill="white"/>
<path d="M37.9561 9.2304C38.3457 9.20244 38.7366 9.2613 39.1007 9.40274C39.4649 9.54417 39.793 9.76465 40.0616 10.0483C40.3302 10.3319 40.5325 10.6716 40.6539 11.0429C40.7753 11.4141 40.8128 11.8077 40.7637 12.1952C40.7637 14.1015 39.7334 15.1972 37.9561 15.1972H35.8008V9.2304H37.9561ZM36.7275 14.3534H37.8525C38.1309 14.37 38.4095 14.3244 38.6681 14.2198C38.9266 14.1152 39.1586 13.9542 39.3471 13.7487C39.5356 13.5431 39.6759 13.2981 39.7577 13.0315C39.8396 12.7648 39.861 12.4833 39.8203 12.2074C39.858 11.9326 39.8345 11.6528 39.7513 11.3881C39.6682 11.1235 39.5276 10.8805 39.3395 10.6765C39.1515 10.4726 38.9206 10.3128 38.6635 10.2086C38.4065 10.1043 38.1295 10.0582 37.8525 10.0736H36.7275V14.3534Z" fill="white"/>
<path d="M41.8108 12.9438C41.7825 12.6479 41.8164 12.3493 41.9102 12.0672C42.0041 11.7852 42.1558 11.5258 42.3557 11.3059C42.5557 11.0859 42.7994 10.9101 43.0713 10.7898C43.3431 10.6696 43.6371 10.6074 43.9344 10.6074C44.2316 10.6074 44.5256 10.6696 44.7975 10.7898C45.0693 10.9101 45.313 11.0859 45.513 11.3059C45.7129 11.5258 45.8647 11.7852 45.9585 12.0672C46.0524 12.3493 46.0862 12.6479 46.0579 12.9438C46.0867 13.24 46.0533 13.539 45.9597 13.8215C45.8661 14.1041 45.7144 14.3639 45.5145 14.5843C45.3145 14.8047 45.0706 14.9808 44.7984 15.1014C44.5263 15.2219 44.232 15.2842 43.9344 15.2842C43.6367 15.2842 43.3424 15.2219 43.0703 15.1014C42.7982 14.9808 42.5543 14.8047 42.3543 14.5843C42.1543 14.3639 42.0026 14.1041 41.909 13.8215C41.8154 13.539 41.782 13.24 41.8108 12.9438ZM45.1438 12.9438C45.1438 11.9677 44.7053 11.3969 43.9358 11.3969C43.1634 11.3969 42.7288 11.9677 42.7288 12.9438C42.7288 13.9277 43.1634 14.4941 43.9358 14.4941C44.7054 14.4941 45.1438 13.9238 45.1438 12.9438H45.1438Z" fill="white"/>
<path d="M51.7031 15.1973H50.7812L49.8506 11.8809H49.7803L48.8535 15.1973H47.9404L46.6992 10.6943H47.6006L48.4072 14.1303H48.4736L49.3994 10.6943H50.252L51.1777 14.1303H51.2481L52.0508 10.6943H52.9394L51.7031 15.1973Z" fill="white"/>
<path d="M53.9834 10.6939H54.8389V11.4092H54.9053C55.0179 11.1523 55.2079 10.9369 55.4488 10.7931C55.6897 10.6493 55.9694 10.5842 56.249 10.607C56.4681 10.5905 56.6881 10.6235 56.8927 10.7036C57.0973 10.7837 57.2813 10.9088 57.431 11.0697C57.5806 11.2305 57.6922 11.423 57.7574 11.6328C57.8226 11.8426 57.8398 12.0644 57.8076 12.2818V15.1968H56.9189V12.5049C56.9189 11.7813 56.6045 11.4214 55.9473 11.4214C55.7985 11.4145 55.65 11.4398 55.512 11.4957C55.3739 11.5515 55.2495 11.6365 55.1474 11.7449C55.0453 11.8533 54.9678 11.9825 54.9203 12.1236C54.8728 12.2647 54.8563 12.4145 54.8721 12.5625V15.1968H53.9834L53.9834 10.6939Z" fill="white"/>
<path d="M59.2236 8.93652H60.1123V15.1973H59.2236V8.93652Z" fill="white"/>
<path d="M61.3479 12.9439C61.3196 12.6479 61.3535 12.3494 61.4474 12.0673C61.5412 11.7852 61.693 11.5259 61.893 11.3059C62.0929 11.0859 62.3367 10.9101 62.6085 10.7898C62.8804 10.6696 63.1744 10.6074 63.4717 10.6074C63.769 10.6074 64.063 10.6696 64.3349 10.7898C64.6067 10.9101 64.8505 11.0859 65.0504 11.3059C65.2504 11.5259 65.4022 11.7852 65.496 12.0673C65.5899 12.3494 65.6238 12.6479 65.5955 12.9439C65.6243 13.2401 65.5908 13.5391 65.4972 13.8216C65.4036 14.1042 65.2519 14.364 65.0519 14.5844C64.8518 14.8048 64.6079 14.9809 64.3358 15.1014C64.0637 15.222 63.7693 15.2842 63.4717 15.2842C63.1741 15.2842 62.8797 15.222 62.6076 15.1014C62.3355 14.9809 62.0915 14.8048 61.8915 14.5844C61.6915 14.364 61.5398 14.1042 61.4462 13.8216C61.3526 13.5391 61.3191 13.2401 61.3479 12.9439ZM64.6809 12.9439C64.6809 11.9678 64.2424 11.397 63.4729 11.397C62.7005 11.397 62.2659 11.9678 62.2659 12.9439C62.2659 13.9278 62.7005 14.4942 63.4729 14.4942C64.2424 14.4942 64.6809 13.9239 64.6809 12.9439H64.6809Z" fill="white"/>
<path d="M66.5312 13.9238C66.5312 13.1133 67.1348 12.646 68.206 12.5796L69.4258 12.5093V12.1206C69.4258 11.645 69.1113 11.3765 68.5039 11.3765C68.0078 11.3765 67.6641 11.5586 67.5654 11.877H66.7051C66.7959 11.1035 67.5234 10.6074 68.5449 10.6074C69.6738 10.6074 70.3105 11.1694 70.3105 12.1206V15.1973H69.4551V14.5645H69.3848C69.242 14.7914 69.0416 14.9765 68.804 15.1007C68.5664 15.2249 68.3001 15.2838 68.0322 15.2715C67.8432 15.2911 67.6521 15.2709 67.4714 15.2122C67.2906 15.1536 67.1242 15.0576 66.9827 14.9307C66.8413 14.8037 66.7281 14.6485 66.6503 14.4751C66.5726 14.3017 66.532 14.1139 66.5312 13.9238ZM69.4258 13.5391V13.1626L68.3262 13.2329C67.7061 13.2744 67.4248 13.4853 67.4248 13.8823C67.4248 14.2876 67.7764 14.5234 68.2598 14.5234C68.4014 14.5378 68.5445 14.5235 68.6805 14.4814C68.8165 14.4393 68.9427 14.3703 69.0515 14.2784C69.1603 14.1866 69.2495 14.0738 69.3138 13.9468C69.3781 13.8198 69.4162 13.6811 69.4258 13.5391Z" fill="white"/>
<path d="M71.4775 12.9439C71.4775 11.521 72.209 10.6196 73.3467 10.6196C73.6281 10.6067 73.9074 10.6741 74.1519 10.814C74.3964 10.9539 74.5961 11.1605 74.7275 11.4096H74.794V8.93652H75.6826V15.1973H74.8311V14.4858H74.7607C74.6191 14.7333 74.4125 14.9374 74.1633 15.0758C73.914 15.2143 73.6316 15.282 73.3467 15.2715C72.2012 15.2715 71.4775 14.3701 71.4775 12.9439ZM72.3955 12.9439C72.3955 13.8989 72.8457 14.4737 73.5987 14.4737C74.3477 14.4737 74.8106 13.8907 74.8106 12.9478C74.8106 12.0093 74.3428 11.418 73.5987 11.418C72.8506 11.418 72.3955 11.9966 72.3955 12.9439H72.3955Z" fill="white"/>
<path d="M79.3597 12.9438C79.3313 12.6479 79.3652 12.3493 79.459 12.0672C79.5529 11.7852 79.7046 11.5258 79.9046 11.3059C80.1045 11.0859 80.3482 10.9101 80.6201 10.7898C80.8919 10.6696 81.1859 10.6074 81.4832 10.6074C81.7805 10.6074 82.0744 10.6696 82.3463 10.7898C82.6181 10.9101 82.8619 11.0859 83.0618 11.3059C83.2617 11.5258 83.4135 11.7852 83.5073 12.0672C83.6012 12.3493 83.635 12.6479 83.6067 12.9438C83.6356 13.24 83.6021 13.539 83.5085 13.8215C83.4149 14.1041 83.2633 14.3639 83.0633 14.5843C82.8633 14.8047 82.6194 14.9808 82.3473 15.1014C82.0751 15.2219 81.7808 15.2842 81.4832 15.2842C81.1856 15.2842 80.8912 15.2219 80.6191 15.1014C80.347 14.9808 80.1031 14.8047 79.9031 14.5843C79.7031 14.3639 79.5514 14.1041 79.4578 13.8215C79.3643 13.539 79.3308 13.24 79.3597 12.9438ZM82.6927 12.9438C82.6927 11.9677 82.2542 11.3969 81.4847 11.3969C80.7122 11.3969 80.2777 11.9677 80.2777 12.9438C80.2777 13.9277 80.7122 14.4941 81.4847 14.4941C82.2542 14.4941 82.6927 13.9238 82.6927 12.9438Z" fill="white"/>
<path d="M84.7988 10.6939H85.6543V11.4092H85.7207C85.8334 11.1523 86.0234 10.9369 86.2642 10.7931C86.5051 10.6493 86.7848 10.5842 87.0645 10.607C87.2836 10.5905 87.5036 10.6235 87.7082 10.7036C87.9128 10.7837 88.0967 10.9088 88.2464 11.0697C88.3961 11.2305 88.5077 11.423 88.5729 11.6328C88.6381 11.8426 88.6552 12.0644 88.623 12.2818V15.1968H87.7344V12.5049C87.7344 11.7813 87.4199 11.4214 86.7627 11.4214C86.6139 11.4145 86.4654 11.4398 86.3274 11.4957C86.1893 11.5515 86.065 11.6365 85.9629 11.7449C85.8607 11.8533 85.7832 11.9825 85.7357 12.1236C85.6882 12.2647 85.6717 12.4145 85.6875 12.5625V15.1968H84.7988V10.6939Z" fill="white"/>
<path d="M93.6455 9.57324V10.7148H94.6211V11.4634H93.6455V13.7788C93.6455 14.2505 93.8398 14.457 94.2822 14.457C94.3955 14.4567 94.5086 14.4498 94.6211 14.4365V15.1768C94.4615 15.2053 94.2998 15.2205 94.1377 15.2222C93.1494 15.2222 92.7559 14.8745 92.7559 14.0063V11.4633H92.041V10.7148H92.7559V9.57324H93.6455Z" fill="white"/>
<path d="M95.834 8.93652H96.7148V11.418H96.7851C96.9033 11.1587 97.0985 10.9421 97.3442 10.7977C97.5899 10.6534 97.8741 10.5883 98.1581 10.6113C98.3761 10.5995 98.594 10.6359 98.7963 10.7179C98.9986 10.7999 99.1802 10.9256 99.3284 11.086C99.4765 11.2463 99.5874 11.4373 99.6532 11.6455C99.719 11.8536 99.738 12.0737 99.7089 12.29V15.1973H98.8194V12.5093C98.8194 11.79 98.4844 11.4258 97.8565 11.4258C97.7037 11.4132 97.5501 11.4342 97.4063 11.4873C97.2626 11.5404 97.1321 11.6242 97.0241 11.7329C96.9161 11.8417 96.8332 11.9727 96.7811 12.1168C96.7291 12.261 96.7091 12.4147 96.7227 12.5674V15.1973H95.834L95.834 8.93652Z" fill="white"/>
<path d="M104.891 13.9815C104.771 14.3931 104.509 14.749 104.152 14.9872C103.796 15.2253 103.366 15.3305 102.94 15.2842C102.643 15.2921 102.349 15.2353 102.076 15.1177C101.804 15.0002 101.56 14.8248 101.362 14.6036C101.164 14.3825 101.017 14.1209 100.93 13.8371C100.843 13.5533 100.819 13.254 100.86 12.96C100.821 12.6652 100.845 12.3652 100.931 12.0805C101.018 11.7959 101.164 11.5331 101.361 11.31C101.558 11.087 101.801 10.9088 102.072 10.7876C102.344 10.6664 102.639 10.605 102.936 10.6075C104.189 10.6075 104.945 11.4635 104.945 12.8775V13.1876H101.765V13.2374C101.751 13.4026 101.772 13.569 101.826 13.7257C101.88 13.8825 101.967 14.0262 102.08 14.1476C102.192 14.2691 102.33 14.3656 102.482 14.431C102.634 14.4964 102.799 14.5292 102.965 14.5274C103.177 14.5529 103.392 14.5146 103.583 14.4174C103.774 14.3202 103.932 14.1685 104.036 13.9815L104.891 13.9815ZM101.765 12.5303H104.04C104.051 12.3792 104.03 12.2274 103.979 12.0847C103.928 11.942 103.848 11.8115 103.744 11.7016C103.639 11.5918 103.513 11.505 103.373 11.4468C103.233 11.3886 103.083 11.3604 102.931 11.3638C102.778 11.3619 102.625 11.3908 102.483 11.4487C102.34 11.5067 102.211 11.5925 102.102 11.7012C101.994 11.8099 101.908 11.9393 101.85 12.0817C101.792 12.2241 101.763 12.3766 101.765 12.5303H101.765Z" fill="white"/>
</svg>
