<svg width="136" height="41" viewBox="0 0 136 41" fill="none" xmlns="http://www.w3.org/2000/svg">
<g clip-path="url(#clip0_12_4279)">
<path d="M130.794 0.5H5.79395C3.03252 0.5 0.793945 2.73858 0.793945 5.5V35.5C0.793945 38.2614 3.03252 40.5 5.79395 40.5H130.794C133.555 40.5 135.794 38.2614 135.794 35.5V5.5C135.794 2.73858 133.555 0.5 130.794 0.5Z" fill="black"/>
<path d="M130.794 1.3C131.908 1.3 132.976 1.7425 133.764 2.53015C134.551 3.3178 134.994 4.38609 134.994 5.5V35.5C134.994 36.6139 134.551 37.6822 133.764 38.4698C132.976 39.2575 131.908 39.7 130.794 39.7H5.79395C4.68004 39.7 3.61175 39.2575 2.8241 38.4698C2.03644 37.6822 1.59395 36.6139 1.59395 35.5V5.5C1.59395 4.38609 2.03644 3.3178 2.8241 2.53015C3.61175 1.7425 4.68004 1.3 5.79395 1.3H130.794ZM130.794 0.5H5.79395C4.46786 0.5 3.19609 1.02678 2.25841 1.96447C1.32073 2.90215 0.793945 4.17392 0.793945 5.5V35.5C0.793945 36.8261 1.32073 38.0979 2.25841 39.0355C3.19609 39.9732 4.46786 40.5 5.79395 40.5H130.794C132.12 40.5 133.392 39.9732 134.329 39.0355C135.267 38.0979 135.794 36.8261 135.794 35.5V5.5C135.794 4.17392 135.267 2.90215 134.329 1.96447C133.392 1.02678 132.12 0.5 130.794 0.5Z" fill="#A6A6A6"/>
<path d="M45.1697 10.9858H47.2606V13.8869C46.9469 13.9933 46.6236 14.0724 46.2908 14.1242C45.9608 14.176 45.5911 14.202 45.182 14.202C44.56 14.202 44.0349 14.0778 43.6066 13.8296C43.1811 13.5814 42.8578 13.2281 42.6369 12.7698C42.4159 12.3088 42.3054 11.7619 42.3054 11.129C42.3054 10.5098 42.4268 9.96967 42.6696 9.50866C42.9151 9.04765 43.2684 8.6903 43.7294 8.43661C44.1931 8.18019 44.7496 8.05198 45.3988 8.05198C45.7316 8.05198 46.0467 8.08335 46.344 8.14609C46.6441 8.20611 46.9223 8.29203 47.1788 8.40388L46.9128 9.00946C46.6918 8.91399 46.4477 8.83215 46.1804 8.76396C45.9157 8.69576 45.6416 8.66166 45.3579 8.66166C44.8696 8.66166 44.4509 8.76259 44.1017 8.96445C43.7553 9.16632 43.4893 9.45138 43.3038 9.81964C43.1211 10.1879 43.0297 10.6244 43.0297 11.129C43.0297 11.6282 43.1101 12.0633 43.2711 12.4343C43.432 12.8026 43.683 13.089 44.024 13.2936C44.365 13.4982 44.8041 13.6005 45.3415 13.6005C45.6116 13.6005 45.8435 13.5855 46.0371 13.5554C46.2308 13.5227 46.4068 13.4845 46.565 13.4409V11.6078H45.1697V10.9858ZM52.0398 14.1201H48.7091V8.13791H52.0398V8.75168H49.4047V10.6871H51.8884V11.2927H49.4047V13.5063H52.0398V14.1201ZM55.2028 14.1201H54.5031V8.75168H52.6208V8.13791H57.0768V8.75168H55.2028V14.1201ZM60.1579 14.1201V8.13791H60.8535V14.1201H60.1579ZM64.3357 14.1201H63.636V8.75168H61.7537V8.13791H66.2097V8.75168H64.3357V14.1201ZM74.4792 11.1208C74.4792 11.5818 74.4206 12.0019 74.3033 12.3811C74.186 12.7575 74.0114 13.0822 73.7795 13.355C73.5504 13.625 73.2653 13.8337 72.9243 13.981C72.5834 14.1283 72.1878 14.202 71.7377 14.202C71.274 14.202 70.8689 14.1283 70.5225 13.981C70.1787 13.8337 69.8923 13.6236 69.6632 13.3509C69.4368 13.0781 69.2663 12.7521 69.1517 12.3729C69.0399 11.9937 68.9839 11.5737 68.9839 11.1126C68.9839 10.5016 69.0849 9.96558 69.2867 9.50457C69.4886 9.04356 69.7941 8.68485 70.2033 8.42843C70.6152 8.17201 71.1308 8.0438 71.75 8.0438C72.3419 8.0438 72.8398 8.17064 73.2435 8.42434C73.6499 8.67803 73.9568 9.03538 74.1642 9.49639C74.3742 9.95467 74.4792 10.4961 74.4792 11.1208ZM69.7164 11.1208C69.7164 11.6282 69.7887 12.0674 69.9332 12.4384C70.0778 12.8094 70.2988 13.0958 70.5961 13.2977C70.8962 13.4995 71.2767 13.6005 71.7377 13.6005C72.2015 13.6005 72.5806 13.4995 72.8752 13.2977C73.1726 13.0958 73.3922 12.8094 73.534 12.4384C73.6759 12.0674 73.7468 11.6282 73.7468 11.1208C73.7468 10.3488 73.5845 9.74599 73.2599 9.31226C72.938 8.8758 72.4347 8.65757 71.75 8.65757C71.2863 8.65757 70.9044 8.75714 70.6043 8.95627C70.3042 9.1554 70.0805 9.4391 69.9332 9.80736C69.7887 10.1729 69.7164 10.6107 69.7164 11.1208ZM80.4901 14.1201H79.6881L76.4269 9.09539H76.3942C76.4024 9.22906 76.4119 9.38182 76.4228 9.55367C76.4337 9.7228 76.4419 9.9042 76.4474 10.0979C76.4556 10.2888 76.4596 10.4839 76.4596 10.683V14.1201H75.8131V8.13791H76.611L79.8599 13.1463H79.8886C79.8831 13.0508 79.8763 12.9158 79.8681 12.7412C79.8599 12.5639 79.8517 12.3743 79.8436 12.1724C79.8381 11.9678 79.8354 11.7782 79.8354 11.6037V8.13791H80.4901V14.1201Z" fill="white"/>
<path d="M45.1697 10.9858V10.8858H45.0697V10.9858H45.1697ZM47.2606 10.9858H47.3606V10.8858H47.2606V10.9858ZM47.2606 13.8869L47.2927 13.9816L47.3606 13.9586V13.8869H47.2606ZM46.2908 14.1242L46.2754 14.0254L46.2753 14.0254L46.2908 14.1242ZM43.6066 13.8296L43.5562 13.916L43.5565 13.9161L43.6066 13.8296ZM42.6369 12.7698L42.5467 12.813L42.5468 12.8133L42.6369 12.7698ZM42.6696 9.50866L42.5813 9.46166L42.5811 9.46207L42.6696 9.50866ZM43.7294 8.43661L43.7776 8.52422L43.7778 8.52412L43.7294 8.43661ZM46.344 8.14609L46.3234 8.24394L46.3244 8.24415L46.344 8.14609ZM47.1788 8.40388L47.2703 8.44409L47.3106 8.3523L47.2187 8.31222L47.1788 8.40388ZM46.9128 9.00946L46.8731 9.10126L46.9644 9.14069L47.0043 9.04967L46.9128 9.00946ZM46.1804 8.76396L46.1554 8.86079L46.1556 8.86085L46.1804 8.76396ZM44.1017 8.96445L44.0517 8.87788L44.0514 8.87805L44.1017 8.96445ZM43.3038 9.81964L43.2145 9.77465L43.2142 9.77518L43.3038 9.81964ZM43.2711 12.4343L43.1793 12.4741L43.1795 12.4743L43.2711 12.4343ZM44.024 13.2936L43.9725 13.3793L44.024 13.2936ZM46.0371 13.5554L46.0525 13.6543L46.0538 13.6541L46.0371 13.5554ZM46.565 13.4409L46.5916 13.5373L46.665 13.517V13.4409H46.565ZM46.565 11.6078H46.665V11.5078H46.565V11.6078ZM45.1697 11.6078H45.0697V11.7078H45.1697V11.6078ZM45.1697 11.0858H47.2606V10.8858H45.1697V11.0858ZM47.1606 10.9858V13.8869H47.3606V10.9858H47.1606ZM47.2285 13.7922C46.9203 13.8967 46.6027 13.9744 46.2754 14.0254L46.3062 14.223C46.6446 14.1703 46.9735 14.0899 47.2927 13.9816L47.2285 13.7922ZM46.2753 14.0254C45.9514 14.0763 45.587 14.102 45.182 14.102V14.302C45.5952 14.302 45.9702 14.2758 46.3063 14.223L46.2753 14.0254ZM45.182 14.102C44.5732 14.102 44.0664 13.9805 43.6568 13.7431L43.5565 13.9161C44.0034 14.1752 44.5468 14.302 45.182 14.302V14.102ZM43.657 13.7432C43.2493 13.5054 42.9395 13.1673 42.7269 12.7264L42.5468 12.8133C42.7761 13.2889 43.1129 13.6574 43.5562 13.916L43.657 13.7432ZM42.727 12.7266C42.5139 12.2819 42.4054 11.7504 42.4054 11.129H42.2054C42.2054 11.7734 42.3179 12.3357 42.5467 12.813L42.727 12.7266ZM42.4054 11.129C42.4054 10.523 42.5242 9.99943 42.7581 9.55526L42.5811 9.46207C42.3295 9.93992 42.2054 10.4966 42.2054 11.129H42.4054ZM42.7579 9.55567C42.9942 9.11193 43.3334 8.76863 43.7776 8.52422L43.6812 8.349C43.2033 8.61198 42.836 8.98338 42.5813 9.46166L42.7579 9.55567ZM43.7778 8.52412C44.2237 8.27755 44.7627 8.15198 45.3988 8.15198V7.95198C44.7364 7.95198 44.1625 8.08284 43.681 8.3491L43.7778 8.52412ZM45.3988 8.15198C45.7253 8.15198 46.0334 8.18276 46.3234 8.24394L46.3647 8.04825C46.0599 7.98395 45.7379 7.95198 45.3988 7.95198V8.15198ZM46.3244 8.24415C46.6181 8.30289 46.8895 8.3868 47.1388 8.49554L47.2187 8.31222C46.9552 8.19727 46.6701 8.10932 46.3636 8.04804L46.3244 8.24415ZM47.0872 8.36367L46.8212 8.96925L47.0043 9.04967L47.2703 8.44409L47.0872 8.36367ZM46.9524 8.91767C46.726 8.81982 46.4768 8.73637 46.2051 8.66706L46.1556 8.86085C46.4186 8.92793 46.6576 9.00815 46.8731 9.10126L46.9524 8.91767ZM46.2053 8.66712C45.9322 8.59674 45.6497 8.56166 45.3579 8.56166V8.76166C45.6335 8.76166 45.8993 8.79477 46.1554 8.86079L46.2053 8.66712ZM45.3579 8.56166C44.8557 8.56166 44.419 8.66554 44.0517 8.87788L44.1518 9.05103C44.4828 8.85964 44.8835 8.76166 45.3579 8.76166V8.56166ZM44.0514 8.87805C43.6877 9.08995 43.4084 9.38962 43.2145 9.77465L43.3931 9.86462C43.5702 9.51313 43.8228 9.24269 44.1521 9.05086L44.0514 8.87805ZM43.2142 9.77518C43.0232 10.16 42.9297 10.6124 42.9297 11.129H43.1297C43.1297 10.6363 43.2189 10.2158 43.3934 9.86409L43.2142 9.77518ZM42.9297 11.129C42.9297 11.6388 43.0118 12.088 43.1793 12.4741L43.3628 12.3945C43.2084 12.0386 43.1297 11.6176 43.1297 11.129H42.9297ZM43.1795 12.4743C43.3486 12.8614 43.6135 13.1639 43.9725 13.3793L44.0754 13.2078C43.7525 13.014 43.5154 12.7437 43.3627 12.3943L43.1795 12.4743ZM43.9725 13.3793C44.3336 13.596 44.7922 13.7005 45.3415 13.7005V13.5005C44.8161 13.5005 44.3963 13.4004 44.0754 13.2078L43.9725 13.3793ZM45.3415 13.7005C45.615 13.7005 45.8522 13.6853 46.0524 13.6543L46.0218 13.4566C45.8347 13.4856 45.6082 13.5005 45.3415 13.5005V13.7005ZM46.0538 13.6541C46.2502 13.6209 46.4295 13.582 46.5916 13.5373L46.5384 13.3445C46.384 13.3871 46.2114 13.4246 46.0205 13.4568L46.0538 13.6541ZM46.665 13.4409V11.6078H46.465V13.4409H46.665ZM46.565 11.5078H45.1697V11.7078H46.565V11.5078ZM45.2697 11.6078V10.9858H45.0697V11.6078H45.2697ZM52.0398 14.1201V14.2201H52.1398V14.1201H52.0398ZM48.7091 14.1201H48.6091V14.2201H48.7091V14.1201ZM48.7091 8.13791V8.03791H48.6091V8.13791H48.7091ZM52.0398 8.13791H52.1398V8.03791H52.0398V8.13791ZM52.0398 8.75168V8.85168H52.1398V8.75168H52.0398ZM49.4047 8.75168V8.65168H49.3047V8.75168H49.4047ZM49.4047 10.6871H49.3047V10.7871H49.4047V10.6871ZM51.8884 10.6871H51.9884V10.5871H51.8884V10.6871ZM51.8884 11.2927V11.3927H51.9884V11.2927H51.8884ZM49.4047 11.2927V11.1927H49.3047V11.2927H49.4047ZM49.4047 13.5063H49.3047V13.6063H49.4047V13.5063ZM52.0398 13.5063H52.1398V13.4063H52.0398V13.5063ZM52.0398 14.0201H48.7091V14.2201H52.0398V14.0201ZM48.8091 14.1201V8.13791H48.6091V14.1201H48.8091ZM48.7091 8.23791H52.0398V8.03791H48.7091V8.23791ZM51.9398 8.13791V8.75168H52.1398V8.13791H51.9398ZM52.0398 8.65168H49.4047V8.85168H52.0398V8.65168ZM49.3047 8.75168V10.6871H49.5047V8.75168H49.3047ZM49.4047 10.7871H51.8884V10.5871H49.4047V10.7871ZM51.7884 10.6871V11.2927H51.9884V10.6871H51.7884ZM51.8884 11.1927H49.4047V11.3927H51.8884V11.1927ZM49.3047 11.2927V13.5063H49.5047V11.2927H49.3047ZM49.4047 13.6063H52.0398V13.4063H49.4047V13.6063ZM51.9398 13.5063V14.1201H52.1398V13.5063H51.9398ZM55.2028 14.1201V14.2201H55.3028V14.1201H55.2028ZM54.5031 14.1201H54.4031V14.2201H54.5031V14.1201ZM54.5031 8.75168H54.6031V8.65168H54.5031V8.75168ZM52.6208 8.75168H52.5208V8.85168H52.6208V8.75168ZM52.6208 8.13791V8.03791H52.5208V8.13791H52.6208ZM57.0768 8.13791H57.1768V8.03791H57.0768V8.13791ZM57.0768 8.75168V8.85168H57.1768V8.75168H57.0768ZM55.2028 8.75168V8.65168H55.1028V8.75168H55.2028ZM55.2028 14.0201H54.5031V14.2201H55.2028V14.0201ZM54.6031 14.1201V8.75168H54.4031V14.1201H54.6031ZM54.5031 8.65168H52.6208V8.85168H54.5031V8.65168ZM52.7208 8.75168V8.13791H52.5208V8.75168H52.7208ZM52.6208 8.23791H57.0768V8.03791H52.6208V8.23791ZM56.9768 8.13791V8.75168H57.1768V8.13791H56.9768ZM57.0768 8.65168H55.2028V8.85168H57.0768V8.65168ZM55.1028 8.75168V14.1201H55.3028V8.75168H55.1028ZM60.1579 14.1201H60.0579V14.2201H60.1579V14.1201ZM60.1579 8.13791V8.03791H60.0579V8.13791H60.1579ZM60.8535 8.13791H60.9535V8.03791H60.8535V8.13791ZM60.8535 14.1201V14.2201H60.9535V14.1201H60.8535ZM60.2579 14.1201V8.13791H60.0579V14.1201H60.2579ZM60.1579 8.23791H60.8535V8.03791H60.1579V8.23791ZM60.7535 8.13791V14.1201H60.9535V8.13791H60.7535ZM60.8535 14.0201H60.1579V14.2201H60.8535V14.0201ZM64.3357 14.1201V14.2201H64.4357V14.1201H64.3357ZM63.636 14.1201H63.536V14.2201H63.636V14.1201ZM63.636 8.75168H63.736V8.65168H63.636V8.75168ZM61.7537 8.75168H61.6537V8.85168H61.7537V8.75168ZM61.7537 8.13791V8.03791H61.6537V8.13791H61.7537ZM66.2097 8.13791H66.3097V8.03791H66.2097V8.13791ZM66.2097 8.75168V8.85168H66.3097V8.75168H66.2097ZM64.3357 8.75168V8.65168H64.2357V8.75168H64.3357ZM64.3357 14.0201H63.636V14.2201H64.3357V14.0201ZM63.736 14.1201V8.75168H63.536V14.1201H63.736ZM63.636 8.65168H61.7537V8.85168H63.636V8.65168ZM61.8537 8.75168V8.13791H61.6537V8.75168H61.8537ZM61.7537 8.23791H66.2097V8.03791H61.7537V8.23791ZM66.1097 8.13791V8.75168H66.3097V8.13791H66.1097ZM66.2097 8.65168H64.3357V8.85168H66.2097V8.65168ZM64.2357 8.75168V14.1201H64.4357V8.75168H64.2357ZM74.3033 12.3811L74.3987 12.4109L74.3988 12.4107L74.3033 12.3811ZM73.7795 13.355L73.7033 13.2902L73.7033 13.2903L73.7795 13.355ZM72.9243 13.981L72.964 14.0728L72.9243 13.981ZM70.5225 13.981L70.4831 14.0729L70.4833 14.073L70.5225 13.981ZM69.6632 13.3509L69.5862 13.4147L69.5866 13.4152L69.6632 13.3509ZM69.1517 12.3729L69.0558 12.4012L69.056 12.4018L69.1517 12.3729ZM70.2033 8.42843L70.1504 8.34353L70.1502 8.34369L70.2033 8.42843ZM73.2435 8.42434L73.1903 8.50901L73.1905 8.50917L73.2435 8.42434ZM74.1642 9.49639L74.0729 9.5374L74.0732 9.53805L74.1642 9.49639ZM70.5961 13.2977L70.5399 13.3804L70.5403 13.3806L70.5961 13.2977ZM72.8752 13.2977L72.8191 13.2149L72.8187 13.2152L72.8752 13.2977ZM73.2599 9.31226L73.1794 9.37161L73.1798 9.37218L73.2599 9.31226ZM70.6043 8.95627L70.549 8.87295L70.6043 8.95627ZM69.9332 9.80736L69.8404 9.77022L69.8402 9.77058L69.9332 9.80736ZM74.3792 11.1208C74.3792 11.5734 74.3216 11.9833 74.2077 12.3516L74.3988 12.4107C74.5195 12.0205 74.5792 11.5903 74.5792 11.1208H74.3792ZM74.2078 12.3514C74.0941 12.7163 73.9256 13.0287 73.7033 13.2902L73.8557 13.4197C74.0971 13.1357 74.2779 12.7988 74.3987 12.4109L74.2078 12.3514ZM73.7033 13.2903C73.4846 13.548 73.2122 13.7477 72.8847 13.8892L72.964 14.0728C73.3184 13.9197 73.6162 13.702 73.8558 13.4196L73.7033 13.2903ZM72.8847 13.8892C72.5586 14.0301 72.177 14.102 71.7377 14.102V14.302C72.1986 14.302 72.6081 14.2265 72.964 14.0728L72.8847 13.8892ZM71.7377 14.102C71.2844 14.102 70.8931 14.0299 70.5616 13.889L70.4833 14.073C70.8446 14.2267 71.2636 14.302 71.7377 14.302V14.102ZM70.5618 13.8891C70.2318 13.7476 69.9583 13.5467 69.7397 13.2865L69.5866 13.4152C69.8263 13.7005 70.1257 13.9198 70.4831 14.0729L70.5618 13.8891ZM69.7401 13.287C69.5232 13.0256 69.3586 12.7119 69.2474 12.344L69.056 12.4018C69.174 12.7923 69.3503 13.1305 69.5862 13.4147L69.7401 13.287ZM69.2476 12.3446C69.1389 11.976 69.0839 11.5656 69.0839 11.1126H68.8839C68.8839 11.5817 68.9408 12.0115 69.0558 12.4012L69.2476 12.3446ZM69.0839 11.1126C69.0839 10.5125 69.1831 9.99064 69.3783 9.54468L69.1951 9.46446C68.9867 9.94052 68.8839 10.4907 68.8839 11.1126H69.0839ZM69.3783 9.54468C69.5725 9.10125 69.865 8.75845 70.2564 8.51316L70.1502 8.34369C69.7232 8.61125 69.4047 8.98587 69.1951 9.46446L69.3783 9.54468ZM70.2561 8.51332C70.6484 8.26916 71.1443 8.1438 71.75 8.1438V7.9438C71.1172 7.9438 70.582 8.07485 70.1504 8.34353L70.2561 8.51332ZM71.75 8.1438C72.3277 8.1438 72.806 8.2675 73.1903 8.50901L73.2967 8.33966C72.8736 8.07379 72.3562 7.9438 71.75 7.9438V8.1438ZM73.1905 8.50917C73.5792 8.75177 73.8733 9.09342 74.0729 9.5374L74.2554 9.45537C74.0404 8.97734 73.7207 8.60428 73.2964 8.3395L73.1905 8.50917ZM74.0732 9.53805C74.276 9.98052 74.3792 10.5072 74.3792 11.1208H74.5792C74.5792 10.4851 74.4724 9.92881 74.2551 9.45472L74.0732 9.53805ZM69.6164 11.1208C69.6164 11.6374 69.6899 12.0894 69.8401 12.4747L70.0264 12.4021C69.8874 12.0454 69.8164 11.6191 69.8164 11.1208H69.6164ZM69.8401 12.4747C69.9912 12.8624 70.2241 13.166 70.5399 13.3804L70.6523 13.2149C70.3735 13.0257 70.1645 12.7563 70.0264 12.4021L69.8401 12.4747ZM70.5403 13.3806C70.8609 13.5963 71.2623 13.7005 71.7377 13.7005V13.5005C71.2911 13.5005 70.9315 13.4028 70.6519 13.2147L70.5403 13.3806ZM71.7377 13.7005C72.2157 13.7005 72.6162 13.5964 72.9318 13.3802L72.8187 13.2152C72.5451 13.4027 72.1873 13.5005 71.7377 13.5005V13.7005ZM72.9314 13.3804C73.2474 13.1658 73.4791 12.8621 73.6274 12.4741L73.4406 12.4027C73.3053 12.7567 73.0977 13.0258 72.8191 13.2149L72.9314 13.3804ZM73.6274 12.4741C73.7747 12.089 73.8468 11.6372 73.8468 11.1208H73.6468C73.6468 11.6192 73.5771 12.0458 73.4406 12.4027L73.6274 12.4741ZM73.8468 11.1208C73.8468 10.3361 73.682 9.70934 73.3399 9.25234L73.1798 9.37218C73.487 9.78263 73.6468 10.3615 73.6468 11.1208H73.8468ZM73.3403 9.2529C72.9947 8.78426 72.4572 8.55757 71.75 8.55757V8.75757C72.4122 8.75757 72.8812 8.96734 73.1794 9.37161L73.3403 9.2529ZM71.75 8.55757C71.2722 8.55757 70.8696 8.6602 70.549 8.87295L70.6596 9.03959C70.9391 8.85407 71.3003 8.75757 71.75 8.75757V8.55757ZM70.549 8.87295C70.2303 9.08444 69.9944 9.38511 69.8404 9.77022L70.0261 9.8445C70.1666 9.49309 70.3781 9.22637 70.6596 9.03959L70.549 8.87295ZM69.8402 9.77058C69.6899 10.1507 69.6164 10.6017 69.6164 11.1208H69.8164C69.8164 10.6197 69.8874 10.1951 70.0262 9.84414L69.8402 9.77058ZM80.4901 14.1201V14.2201H80.5901V14.1201H80.4901ZM79.6881 14.1201L79.6042 14.1746L79.6338 14.2201H79.6881V14.1201ZM76.4269 9.09539L76.5108 9.04095L76.4812 8.99539H76.4269V9.09539ZM76.3942 9.09539V8.99539H76.2879L76.2944 9.1015L76.3942 9.09539ZM76.4228 9.55367L76.323 9.56001L76.323 9.56011L76.4228 9.55367ZM76.4474 10.0979L76.3474 10.1007L76.3475 10.1022L76.4474 10.0979ZM76.4596 14.1201V14.2201H76.5597V14.1201H76.4596ZM75.8131 14.1201H75.7131V14.2201H75.8131V14.1201ZM75.8131 8.13791V8.03791H75.7131V8.13791H75.8131ZM76.611 8.13791L76.6949 8.08349L76.6654 8.03791H76.611V8.13791ZM79.8599 13.1463L79.776 13.2007L79.8056 13.2463H79.8599V13.1463ZM79.8886 13.1463V13.2463H79.9945L79.9884 13.1406L79.8886 13.1463ZM79.8681 12.7412L79.7682 12.7458L79.7682 12.7459L79.8681 12.7412ZM79.8436 12.1724L79.7436 12.1751L79.7436 12.1765L79.8436 12.1724ZM79.8354 8.13791V8.03791H79.7354V8.13791H79.8354ZM80.4901 8.13791H80.5901V8.03791H80.4901V8.13791ZM80.4901 14.0201H79.6881V14.2201H80.4901V14.0201ZM79.772 14.0657L76.5108 9.04095L76.343 9.14983L79.6042 14.1746L79.772 14.0657ZM76.4269 8.99539H76.3942V9.19539H76.4269V8.99539ZM76.2944 9.1015C76.3026 9.23526 76.3121 9.3881 76.323 9.56001L76.5226 9.54734C76.5117 9.37554 76.5022 9.22285 76.494 9.08928L76.2944 9.1015ZM76.323 9.56011C76.3339 9.72788 76.342 9.90806 76.3474 10.1007L76.5473 10.0951C76.5418 9.90035 76.5336 9.71772 76.5226 9.54723L76.323 9.56011ZM76.3475 10.1022C76.3556 10.2916 76.3596 10.4852 76.3596 10.683H76.5597C76.5597 10.4825 76.5555 10.286 76.5473 10.0936L76.3475 10.1022ZM76.3596 10.683V14.1201H76.5597V10.683H76.3596ZM76.4596 14.0201H75.8131V14.2201H76.4596V14.0201ZM75.9131 14.1201V8.13791H75.7131V14.1201H75.9131ZM75.8131 8.23791H76.611V8.03791H75.8131V8.23791ZM76.5271 8.19233L79.776 13.2007L79.9438 13.0918L76.6949 8.08349L76.5271 8.19233ZM79.8599 13.2463H79.8886V13.0463H79.8599V13.2463ZM79.9884 13.1406C79.983 13.0456 79.9762 12.911 79.968 12.7365L79.7682 12.7459C79.7764 12.9206 79.7833 13.056 79.7887 13.152L79.9884 13.1406ZM79.968 12.7366C79.9598 12.5595 79.9517 12.3701 79.9435 12.1684L79.7436 12.1765C79.7518 12.3785 79.76 12.5683 79.7682 12.7458L79.968 12.7366ZM79.9435 12.1698C79.9381 11.9659 79.9354 11.7772 79.9354 11.6037H79.7354C79.7354 11.7793 79.7381 11.9698 79.7436 12.1751L79.9435 12.1698ZM79.9354 11.6037V8.13791H79.7354V11.6037H79.9354ZM79.8354 8.23791H80.4901V8.03791H79.8354V8.23791ZM80.3901 8.13791V14.1201H80.5901V8.13791H80.3901Z" fill="white"/>
<path d="M68.934 22.2499C68.0915 22.2519 67.2685 22.5037 66.569 22.9734C65.8696 23.4432 65.3251 24.1098 65.0045 24.8889C64.6839 25.6681 64.6016 26.5248 64.7679 27.3508C64.9342 28.1768 65.3417 28.9349 65.9389 29.5293C66.536 30.1236 67.296 30.5276 68.1228 30.69C68.9495 30.8524 69.8059 30.7661 70.5835 30.4418C71.3612 30.1175 72.0252 29.57 72.4917 28.8683C72.9581 28.1667 73.206 27.3425 73.204 26.4999C73.2122 25.9379 73.1072 25.3799 72.8952 24.8593C72.6833 24.3386 72.3687 23.866 71.9703 23.4694C71.5719 23.0729 71.0978 22.7606 70.5761 22.551C70.0545 22.3415 69.4961 22.2391 68.934 22.2499ZM68.934 29.0799C68.4176 29.116 67.9023 28.996 67.455 28.7353C67.0077 28.4747 66.6492 28.0855 66.4261 27.6184C66.2029 27.1512 66.1254 26.6278 66.2037 26.1161C66.282 25.6043 66.5124 25.128 66.865 24.749C67.2176 24.3699 67.6761 24.1057 68.1808 23.9907C68.6856 23.8757 69.2132 23.9152 69.6952 24.104C70.1772 24.2929 70.5913 24.6223 70.8836 25.0496C71.1758 25.4769 71.3328 25.9822 71.334 26.4999C71.3502 26.8279 71.3004 27.1559 71.1878 27.4643C71.0751 27.7728 70.9019 28.0556 70.6782 28.2961C70.4545 28.5366 70.1849 28.7298 69.8854 28.8644C69.5858 28.999 69.2624 29.0723 68.934 29.0799ZM59.614 22.2499C58.7715 22.2519 57.9485 22.5037 57.249 22.9734C56.5496 23.4432 56.0051 24.1098 55.6845 24.8889C55.3639 25.6681 55.2816 26.5248 55.4479 27.3508C55.6142 28.1768 56.0217 28.9349 56.6189 29.5293C57.216 30.1236 57.976 30.5276 58.8028 30.69C59.6295 30.8524 60.4859 30.7661 61.2635 30.4418C62.0412 30.1175 62.7052 29.57 63.1717 28.8683C63.6381 28.1667 63.886 27.3425 63.884 26.4999C63.8922 25.9379 63.7872 25.3799 63.5752 24.8593C63.3633 24.3386 63.0487 23.866 62.6503 23.4694C62.2519 23.0729 61.7778 22.7606 61.2561 22.551C60.7345 22.3415 60.1761 22.2391 59.614 22.2499ZM59.614 29.0799C59.0976 29.116 58.5823 28.996 58.135 28.7353C57.6877 28.4747 57.3292 28.0855 57.1061 27.6184C56.8829 27.1512 56.8054 26.6278 56.8837 26.1161C56.962 25.6043 57.1924 25.128 57.545 24.749C57.8976 24.3699 58.3561 24.1057 58.8608 23.9907C59.3656 23.8757 59.8932 23.9152 60.3752 24.104C60.8572 24.2929 61.2713 24.6223 61.5636 25.0496C61.8558 25.4769 62.0128 25.9822 62.014 26.4999C62.0302 26.8279 61.9804 27.1559 61.8678 27.4643C61.7551 27.7728 61.5819 28.0556 61.3582 28.2961C61.1345 28.5366 60.8649 28.7298 60.5654 28.8644C60.2658 28.999 59.9424 29.0723 59.614 29.0799ZM48.534 23.5599V25.3599H52.854C52.7863 26.2077 52.4339 27.0077 51.854 27.6299C51.4207 28.0714 50.8995 28.4171 50.3242 28.6444C49.7488 28.8718 49.1321 28.9759 48.514 28.9499C47.241 28.9499 46.0201 28.4442 45.1199 27.544C44.2198 26.6439 43.714 25.423 43.714 24.1499C43.714 22.8769 44.2198 21.656 45.1199 20.7558C46.0201 19.8556 47.241 19.3499 48.514 19.3499C49.7345 19.3318 50.9129 19.7952 51.794 20.6399L53.064 19.3699C52.468 18.7804 51.7604 18.3158 50.9825 18.0033C50.2046 17.6908 49.3722 17.5366 48.534 17.5499C47.645 17.5153 46.7582 17.6605 45.9267 17.9769C45.0951 18.2932 44.336 18.7742 43.6948 19.3909C43.0536 20.0077 42.5435 20.7475 42.195 21.5661C41.8466 22.3847 41.667 23.2652 41.667 24.1549C41.667 25.0446 41.8466 25.9251 42.195 26.7437C42.5435 27.5623 43.0536 28.3022 43.6948 28.9189C44.336 29.5357 45.0951 30.0166 45.9267 30.333C46.7582 30.6493 47.645 30.7945 48.534 30.7599C49.3895 30.7941 50.2424 30.6469 51.0369 30.3281C51.8315 30.0092 52.5495 29.5259 53.144 28.9099C54.1942 27.7563 54.7537 26.2391 54.704 24.6799C54.7076 24.3046 54.6775 23.9298 54.614 23.5599H48.534ZM93.844 24.9599C93.5833 24.1927 93.0956 23.5227 92.4455 23.0388C91.7955 22.5548 91.0139 22.2797 90.204 22.2499C89.657 22.2489 89.1156 22.36 88.6133 22.5765C88.1109 22.7929 87.6583 23.1101 87.2834 23.5085C86.9085 23.9068 86.6193 24.3778 86.4337 24.8923C86.248 25.4068 86.1699 25.954 86.204 26.4999C86.1955 27.4128 86.4825 28.3039 87.0222 29.0402C87.5618 29.7765 88.3252 30.3184 89.1983 30.5851C90.0714 30.8517 91.0073 30.8288 91.8663 30.5196C92.7252 30.2105 93.4611 29.6318 93.964 28.8699L92.514 27.8699C92.2979 28.2302 91.9913 28.5277 91.6247 28.7329C91.2581 28.9382 90.8442 29.044 90.424 29.0399C89.9906 29.0578 89.5619 28.9442 89.1943 28.714C88.8266 28.4837 88.5372 28.1477 88.364 27.7499L94.054 25.3999L93.844 24.9599ZM88.044 26.3799C88.0238 26.0693 88.0657 25.7578 88.1673 25.4635C88.269 25.1693 88.4283 24.8983 88.6359 24.6664C88.8436 24.4346 89.0955 24.2464 89.3767 24.1131C89.658 23.9798 89.9631 23.9039 90.274 23.8899C90.5963 23.8703 90.9171 23.9461 91.1964 24.108C91.4757 24.2699 91.701 24.5106 91.844 24.7999L88.044 26.3799ZM83.424 30.4999H85.294V17.9999H83.424V30.4999ZM80.364 23.1999H80.294C80.0147 22.8818 79.6699 22.6277 79.2833 22.4551C78.8967 22.2825 78.4774 22.1955 78.054 22.1999C76.9612 22.2529 75.9307 22.7243 75.176 23.5165C74.4213 24.3087 74.0004 25.3608 74.0004 26.4549C74.0004 27.549 74.4213 28.6012 75.176 29.3933C75.9307 30.1855 76.9612 30.6569 78.054 30.7099C78.478 30.7184 78.8986 30.6332 79.2858 30.4603C79.673 30.2875 80.0173 30.0312 80.294 29.7099H80.364V30.3199C80.364 31.9499 79.494 32.8199 78.094 32.8199C77.6264 32.8096 77.1723 32.6606 76.7895 32.3918C76.4067 32.1229 76.1124 31.7464 75.944 31.3099L74.324 31.9799C74.6236 32.7322 75.1443 33.3758 75.8174 33.8258C76.4906 34.2757 77.2844 34.5108 78.094 34.4999C80.284 34.4999 82.094 33.2099 82.094 30.0699V22.4999H80.364V23.1999ZM78.214 29.0799C77.5588 29.0391 76.9439 28.75 76.4943 28.2716C76.0448 27.7932 75.7946 27.1614 75.7946 26.5049C75.7946 25.8485 76.0448 25.2167 76.4943 24.7383C76.9439 24.2598 77.5588 23.9708 78.214 23.9299C78.5343 23.9437 78.8485 24.0218 79.1379 24.1596C79.4273 24.2973 79.6861 24.4918 79.8988 24.7316C80.1116 24.9714 80.2739 25.2515 80.3761 25.5553C80.4784 25.8591 80.5185 26.1803 80.494 26.4999C80.5213 26.8206 80.4833 27.1435 80.3822 27.4491C80.2811 27.7546 80.1191 28.0365 79.906 28.2777C79.6929 28.5189 79.4331 28.7143 79.1422 28.8522C78.8514 28.9901 78.5357 29.0676 78.214 29.0799ZM102.604 17.9999H98.124V30.4999H99.994V25.7599H102.604C103.137 25.7982 103.672 25.7263 104.176 25.5487C104.68 25.371 105.142 25.0915 105.533 24.7274C105.924 24.3634 106.236 23.9227 106.449 23.4328C106.663 22.9428 106.773 22.4142 106.773 21.8799C106.773 21.3456 106.663 20.817 106.449 20.3271C106.236 19.8372 105.924 19.3965 105.533 19.0324C105.142 18.6684 104.68 18.3888 104.176 18.2112C103.672 18.0336 103.137 17.9616 102.604 17.9999ZM102.604 23.9999H99.994V19.7399H102.644C102.925 19.7399 103.203 19.7953 103.463 19.9028C103.723 20.0104 103.959 20.168 104.157 20.3667C104.356 20.5654 104.514 20.8013 104.621 21.061C104.729 21.3206 104.784 21.5989 104.784 21.8799C104.784 22.161 104.729 22.4392 104.621 22.6989C104.514 22.9585 104.356 23.1944 104.157 23.3931C103.959 23.5918 103.723 23.7495 103.463 23.857C103.203 23.9646 102.925 24.0199 102.644 24.0199L102.604 23.9999ZM114.144 22.2099C113.463 22.1679 112.785 22.3265 112.193 22.6659C111.601 23.0054 111.122 23.5109 110.814 24.1199L112.464 24.8099C112.631 24.5093 112.881 24.2634 113.184 24.102C113.488 23.9405 113.832 23.8703 114.174 23.8999C114.411 23.8722 114.652 23.892 114.882 23.9582C115.111 24.0245 115.325 24.1358 115.512 24.2856C115.698 24.4355 115.852 24.6209 115.966 24.8311C116.08 25.0413 116.15 25.2721 116.174 25.5099V25.6299C115.573 25.3138 114.903 25.1491 114.224 25.1499C112.444 25.1499 110.624 26.1499 110.624 27.9699C110.642 28.3568 110.737 28.7361 110.904 29.0855C111.071 29.4348 111.307 29.747 111.597 30.0035C111.887 30.2601 112.225 30.4557 112.593 30.5787C112.96 30.7018 113.348 30.7498 113.734 30.7199C114.203 30.7459 114.671 30.6466 115.089 30.4322C115.507 30.2178 115.861 29.8961 116.114 29.4999H116.174V30.4999H117.974V25.6899C117.974 23.4999 116.314 22.2299 114.184 22.2299L114.144 22.2099ZM113.914 29.0599C113.304 29.0599 112.454 28.7499 112.454 27.9999C112.454 26.9999 113.514 26.6599 114.454 26.6599C115.048 26.6453 115.635 26.7903 116.154 27.0799C116.091 27.623 115.834 28.1249 115.429 28.4926C115.025 28.8604 114.501 29.069 113.954 29.0799L113.914 29.0599ZM124.534 22.4999L122.394 27.9199H122.334L120.114 22.4999H118.114L121.444 30.0799L119.544 34.2899H121.494L126.614 22.4999H124.534ZM107.734 30.4999H109.594V17.9999H107.734V30.4999Z" fill="white"/>
<path d="M21.5143 19.9199L10.8643 31.2199C10.9806 31.6473 11.1936 32.0423 11.4869 32.3742C11.7802 32.7062 12.1458 32.9663 12.5556 33.1345C12.9654 33.3026 13.4083 33.3744 13.8503 33.3441C14.2922 33.3138 14.7212 33.1824 15.1043 32.9599L27.1043 26.0399L21.5143 19.9199Z" fill="#EA4335"/>
<path d="M32.2842 18L27.1042 15L21.2842 20.19L27.1242 26.04L32.2742 23.04C32.732 22.7948 33.1147 22.43 33.3815 21.9845C33.6483 21.5389 33.7892 21.0293 33.7892 20.51C33.7892 19.9907 33.6483 19.4811 33.3815 19.0355C33.1147 18.59 32.732 18.2252 32.2742 17.98L32.2842 18Z" fill="#FBBC04"/>
<path d="M10.864 9.78027C10.8111 10.0165 10.7876 10.2583 10.794 10.5003V30.5003C10.7957 30.7502 10.8293 30.9989 10.894 31.2403L21.894 20.2403L10.864 9.78027Z" fill="#4285F4"/>
<path d="M21.594 20.4996L27.104 14.9896L15.104 8.04965C14.6532 7.78165 14.1385 7.64002 13.614 7.63965C12.9813 7.64146 12.3668 7.85082 11.8646 8.23558C11.3624 8.62035 11.0004 9.15927 10.834 9.76965L21.594 20.4996Z" fill="#34A853"/>
</g>
<defs>
<clipPath id="clip0_12_4279">
<rect width="135" height="40" fill="white" transform="translate(0.793945 0.5)"/>
</clipPath>
</defs>
</svg>
