<?xml version="1.0" encoding="utf-8"?>
<!-- Generator: Adobe Illustrator 27.4.1, SVG Export Plug-In . SVG Version: 6.00 Build 0)  -->
<svg version="1.1" id="mono" xmlns="http://www.w3.org/2000/svg" xmlns:xlink="http://www.w3.org/1999/xlink" x="0px" y="0px"
	 viewBox="0 0 1130 295.1" style="enable-background:new 0 0 1130 295.1;" xml:space="preserve">
<g>
	<g id="hyperin_x5B____x5D__copy_2">
		<path d="M15.1,23.1h39.6V98h0.9c9.9-16.4,27.1-24.1,42.2-24.1c42.2,0,52.5,23.7,52.5,59.4V222h-39.6v-81.4
			c0-23.7-6.9-35.3-25.4-35.3c-21.5,0-30.6,12.1-30.6,41.3V222H15.1V23.1z M251.3,239.9c-8.6,23.3-22.4,32.7-49.5,32.7
			c-8.2,0-15.9-0.4-24.1-1.3v-32.7c7.3,0.9,15.5,1.7,23.3,1.3c10.3-1.3,15.5-9,15.5-18.1c0-3-0.4-6-1.7-9L163.5,78h42.2l32.7,98.6
			h0.4L270.2,78h40.9L251.3,239.9z M405.9,73.9c-17.7,0-33.2,6.9-43.1,22.4h-0.4V77.8h-37.5v194.8h39.6v-68.5h0.4
			c9.9,14.2,25.4,21.5,43.1,21.5c42.2,0,63.3-35.7,63.3-74.5C471.1,110.5,450.9,73.9,405.9,73.9z M397.3,195.9
			c-25.4,0-34.5-22.4-34.5-45.7s8.2-46.5,34.5-46.5c25.4,0,34.5,23.3,34.5,46.5C431.9,174,423.1,195.9,397.3,195.9z M561.6,73.9
			c-43.5,0-73.7,32.7-73.7,76.2c0,44.4,28,75.8,73.7,75.8c32.7,0,56.4-14.2,67.2-48.2h-34.9c-2.6,9-15.5,18.5-31,18.5
			c-22.4,0-34.5-11.2-35.3-36.6h103.8C634.3,115.2,610.7,73.9,561.6,73.9z M527.5,134.2c0.9-11.2,7.3-30.6,32.7-30.6
			c19.4,0,28,10.8,31.4,30.6H527.5z M655,77.8h37.5v26.7h0.4c7.3-18.1,26.3-30.6,46.1-30.6c3,0,6,0.4,8.6,1.3v36.6
			c-3.4-0.9-9.5-1.3-14.2-1.3c-29.3,0-38.8,20.7-38.8,46.1v65H655V77.8L655,77.8z M822.7,36h-25v222.8h25v19h-49.5V17h49.5V36z
			 M1064.9,258.8h25V36h-25V17h50v260.7h-50V258.8z"/>
	</g>
	<g id="in_copy_2">
		<path d="M1040.5,131.3v94.8h-25v-97.8c0-17.7-12.5-28.9-30.6-28.9c-28.9,0-43.5,19.4-43.5,45.2V226H916V81.8h25v22.8h0.4
			c9.9-17.7,25.8-26.3,46.9-26.3C1026.3,78.3,1040.5,100.3,1040.5,131.3z M859.9,27.1v31h24.6v-31C884.5,27.1,859.9,27.1,859.9,27.1
			z M859.9,225.8h24.6v-144h-24.6V225.8z"/>
	</g>
</g>
</svg>
