<svg width="25" height="24" viewBox="0 0 25 24" fill="none" xmlns="http://www.w3.org/2000/svg">
<g clip-path="url(#clip0_12_4208)">
<path d="M21.9355 12H18.1855V9C18.1855 7.34531 19.5309 6 21.1855 6H21.5605C22.184 6 22.6855 5.49844 22.6855 4.875V2.625C22.6855 2.00156 22.184 1.5 21.5605 1.5H21.1855C17.0418 1.5 13.6855 4.85625 13.6855 9V20.25C13.6855 21.4922 14.6934 22.5 15.9355 22.5H21.9355C23.1777 22.5 24.1855 21.4922 24.1855 20.25V14.25C24.1855 13.0078 23.1777 12 21.9355 12ZM8.43555 12H4.68555V9C4.68555 7.34531 6.03086 6 7.68555 6H8.06055C8.68398 6 9.18555 5.49844 9.18555 4.875V2.625C9.18555 2.00156 8.68398 1.5 8.06055 1.5H7.68555C3.5418 1.5 0.185547 4.85625 0.185547 9V20.25C0.185547 21.4922 1.19336 22.5 2.43555 22.5H8.43555C9.67773 22.5 10.6855 21.4922 10.6855 20.25V14.25C10.6855 13.0078 9.67773 12 8.43555 12Z" fill="#F19200"/>
</g>
<defs>
<clipPath id="clip0_12_4208">
<rect width="24" height="24" fill="white" transform="translate(0.185547)"/>
</clipPath>
</defs>
</svg>
